<svg width="32" height="32" viewBox="0 0 32 32" fill="none" xmlns="http://www.w3.org/2000/svg">
<g opacity="0.9">
<g clip-path="url(#clip0_451_5100)">
<rect width="32" height="32" rx="4" fill="#6DB0F4"/>
<path d="M25.1927 6.80754C22.7547 4.36953 19.448 2.99988 16.0002 2.99988C12.5523 2.99988 9.24566 4.36953 6.80766 6.80754C4.36966 9.24554 3 12.5522 3 16C3 19.4479 4.36966 22.7545 6.80766 25.1925C9.24566 27.6305 12.5523 29.0002 16.0002 29.0002C19.448 29.0002 22.7547 27.6305 25.1927 25.1925C27.6307 22.7545 29.0003 19.4479 29.0003 16C29.0003 12.5522 27.6307 9.24554 25.1927 6.80754ZM11.0002 24C11.0002 23.4696 11.2109 22.9609 11.5859 22.5858C11.961 22.2108 12.4697 22 13.0002 22C13.5306 22 14.0393 22.2108 14.4144 22.5858C14.7894 22.9609 15.0002 23.4696 15.0002 24V26.9488C13.6056 26.8227 12.248 26.4315 11.0002 25.7963V24ZM17.0002 24C17.0002 23.4696 17.2109 22.9609 17.5859 22.5858C17.961 22.2108 18.4697 22 19.0002 22C19.5306 22 20.0393 22.2108 20.4144 22.5858C20.7894 22.9609 21.0002 23.4696 21.0002 24V25.7963C19.7523 26.4315 18.3947 26.8227 17.0002 26.9488V24ZM13.4089 17H18.5914L20.0389 20.1375C19.3188 19.9435 18.5588 19.955 17.845 20.1708C17.1311 20.3867 16.492 20.7982 16.0002 21.3588C15.5083 20.7982 14.8692 20.3867 14.1554 20.1708C13.4415 19.955 12.6815 19.9435 11.9614 20.1375L13.4089 17ZM14.3327 15L16.0002 11.3863L17.6677 15H14.3327ZM23.7777 23.7788C23.5277 24.0288 23.2677 24.2625 23.0002 24.4838V22C23.0003 21.8554 22.9688 21.7124 22.9077 21.5813L16.9077 8.58129C16.8275 8.4081 16.6995 8.26147 16.5387 8.15871C16.3778 8.05594 16.191 8.00134 16.0002 8.00134C15.8093 8.00134 15.6225 8.05594 15.4617 8.15871C15.3009 8.26147 15.1728 8.4081 15.0927 8.58129L9.09266 21.5813C9.03156 21.7124 8.99999 21.8554 9.00016 22V24.4838C8.73266 24.2625 8.47266 24.0288 8.22266 23.7788C6.68409 22.2405 5.63625 20.2805 5.21166 18.1466C4.78707 16.0128 5.00479 13.801 5.8373 11.7909C6.66981 9.78076 8.07971 8.06268 9.88869 6.8539C11.6977 5.64512 13.8245 4.99994 16.0002 4.99994C18.1758 4.99994 20.3026 5.64512 22.1116 6.8539C23.9206 8.06268 25.3305 9.78076 26.163 11.7909C26.9955 13.801 27.2132 16.0128 26.7887 18.1466C26.3641 20.2805 25.3162 22.2405 23.7777 23.7788Z" fill="#FBFBFB"/>
</g>
</g>
<defs>
<clipPath id="clip0_451_5100">
<rect width="32" height="32" rx="4" fill="white"/>
</clipPath>
</defs>
</svg>
